<?xml version="1.0" encoding="UTF-8"?><svg id="Calque_2" xmlns="http://www.w3.org/2000/svg" viewBox="0 0 351.26 60.62"><defs><style>.cls-1{fill:#f7f5f6;}</style></defs><g id="Calque_1-2"><rect class="cls-1" x="75.77" y="9.73" width="9.24" height="40.99"/><polygon class="cls-1" points="69.61 9.72 60.36 9.72 60.36 50.71 69.61 50.71 69.61 36.1 74.36 32.72 74.36 23.67 69.61 27.06 69.61 9.72"/><rect class="cls-1" x="113.33" y="9.73" width="9.24" height="40.99"/><polygon class="cls-1" points="148.53 50.71 157.26 50.71 159.75 42.51 148.53 42.51 148.53 50.71"/><polygon class="cls-1" points="230.66 50.71 239.38 50.71 241.88 42.51 230.66 42.51 230.66 50.71"/><polygon class="cls-1" points="123.99 50.71 132.71 50.71 135.2 42.51 123.99 42.51 123.99 50.71"/><rect class="cls-1" x="137.87" y="9.73" width="9.24" height="40.99"/><polygon class="cls-1" points="180.28 38.27 172.21 38.27 172.21 16.8 166.16 16.8 166.16 43.64 180.28 43.64 180.28 38.27"/><polygon class="cls-1" points="194.91 22.17 196.36 16.8 182.23 16.8 182.23 43.64 195.05 43.64 196.68 38.27 188.28 38.27 188.28 32.44 192.83 32.44 194.34 27.46 188.28 27.46 188.28 22.17 194.91 22.17"/><polygon class="cls-1" points="196.41 22.17 202.89 22.17 202.89 43.64 208.95 43.64 208.95 22.17 213.99 22.17 213.99 16.8 197.85 16.8 196.41 22.17"/><rect class="cls-1" x="220" y="9.73" width="9.24" height="40.99"/><path class="cls-1" d="m244.54,15.82v28.81c0,3.69,2.65,6.21,6.53,6.21h5.09v-8.32h-2.19c-.12,0-.18-.06-.18-.17v-24.24c0-.12.06-.18.18-.18h2.19v-8.32h-5.09c-3.88,0-6.53,2.52-6.53,6.21"/><path class="cls-1" d="m262.66,9.61h-5.09v8.32h2.19c.12,0,.18.06.18.18v24.24c0,.12-.06.18-.18.18h-2.19v8.32h5.09c3.88,0,6.53-2.52,6.53-6.21V15.82c0-3.69-2.65-6.21-6.53-6.21"/><path class="cls-1" d="m291.03,9.61h-5.09v8.32h2.19c.12,0,.18.06.18.18v24.24c0,.12-.06.18-.18.18h-2.19v8.32h5.09c3.88,0,6.53-2.52,6.53-6.21V15.82c0-3.69-2.65-6.21-6.53-6.21"/><path class="cls-1" d="m272.92,15.82v28.81c0,3.69,2.65,6.21,6.53,6.21h5.09v-8.32h-2.19c-.12,0-.18-.06-.18-.17v-24.24c0-.12.06-.18.18-.18h2.19v-8.32h-5.09c-3.88,0-6.53,2.52-6.53,6.21"/><path class="cls-1" d="m310.53,42.34v-4.8h-9.24v7.09c0,3.69,2.59,6.21,6.53,6.21h5.08v-8.32h-2.19c-.12,0-.19-.06-.19-.18"/><path class="cls-1" d="m319.41,9.61h-5.09v8.32h2.19c.12,0,.18.06.18.18v4.8h9.24v-7.09c0-3.69-2.65-6.21-6.53-6.21"/><path class="cls-1" d="m310.72,21.03c-.12-.12-.18-.23-.18-.41v-2.52c0-.12.06-.18.18-.18h2.19v-8.32h-5.08c-3.95,0-6.53,2.52-6.53,6.21v4.68c0,2.64.99,4.74,2.46,6.15l12.76,11.94c.12.12.18.24.18.41v3.34c0,.12-.07.18-.18.18h-2.19v8.32h5.09c3.88,0,6.53-2.52,6.53-6.21v-5.5c0-2.63-.99-4.74-2.47-6.15l-12.75-11.94Z"/><rect class="cls-1" x="166.16" y="9.73" width="47.83" height="4.33"/><rect class="cls-1" x="166.16" y="46.38" width="47.83" height="4.33"/><polygon class="cls-1" points="348.15 26.01 340.32 26.01 340.32 33.62 345.84 33.62 348.15 26.01"/><rect class="cls-1" x="329.66" y="9.73" width="9.24" height="40.99"/><polygon class="cls-1" points="340.32 50.71 348.58 50.71 351.07 42.51 340.32 42.51 340.32 50.71"/><polygon class="cls-1" points="351.26 9.72 340.32 9.72 340.32 17.92 348.76 17.92 351.26 9.72"/><polygon class="cls-1" points="107.28 26.01 99.45 26.01 99.45 33.62 104.97 33.62 107.28 26.01"/><rect class="cls-1" x="88.79" y="9.73" width="9.24" height="40.99"/><polygon class="cls-1" points="99.45 50.71 107.71 50.71 110.2 42.51 99.45 42.51 99.45 50.71"/><polygon class="cls-1" points="99.45 17.92 107.9 17.92 110.39 9.72 99.45 9.72 99.45 17.92"/><path class="cls-1" d="m15.55,1.99h.77l-.74,1.7.5,29.96.66,2.41v6.85l.46.31.17,5.17c0,2.14.25,4.27.73,6.35l1.24,5.33c.06.26.27.49.55.54.4.08.77-.16.85-.51l1.25-5.35c.49-2.08.73-4.22.73-6.35l.17-5.17.45-.31v-6.85l.66-2.41.5-29.96-.74-1.7h.77V0h-9v1.99Z"/><path class="cls-1" d="m36.39,28.63V9.05c0-.64.27-1.22.72-1.65.41-.39.96-.64,1.58-.68v-1.85h-9.98v15.55h-2.82l-.17,7.55h2.99v11.2h0c0,4.53.04,11.6,0,11.76l7.68-10.71,3.7-5.16c-1.43-1.37-3.7-2.92-3.7-6.45"/><path class="cls-1" d="m11.39,20.43V4.88H1.41v1.85c.62.03,1.17.29,1.58.68.44.42.72,1,.72,1.64v19.58c0,3.52-2.27,5.08-3.71,6.45l3.71,5.16,7.68,10.71c-.05-.16-.01-7.22,0-11.76h0v-11.21h2.99l-.17-7.55h-2.82Z"/></g></svg>