<svg xmlns="http://www.w3.org/2000/svg" viewBox="0 0 353.87 562.98"><path d="M137.22 18.45h6.79l-6.49 15.76 4.39 278.28 5.82 22.37v63.58l4.01 2.86 1.51 48.04c0 19.84 2.17 39.62 6.47 58.98l10.99 49.47c.54 2.45 2.38 4.5 4.82 5.03 3.51.76 6.8-1.46 7.54-4.79l11.04-49.72c4.3-19.36 6.47-39.14 6.47-58.98l1.51-48.04 4.01-2.86v-63.58l5.82-22.37 4.39-278.28-6.49-15.76h6.79V0h-79.42v18.45Z" class="icon-1" data-svg-origin="137.18997192382812 0" style="translate:none;rotate:none;scale:none;opacity:1;visibility:inherit"/><path d="M321.17 265.95V84.1c0-5.96 2.43-11.36 6.33-15.28 3.6-3.6 8.49-5.95 13.92-6.28V45.35h-88.08v144.44h-24.91l-1.51 70.15h26.42v104.07h.05c.09 42.11.37 107.69-.03 109.19l67.81-99.44 32.7-47.95c-12.67-12.68-32.63-27.14-32.7-59.87Z" class="icon-2" data-svg-origin="226.92001342773438 45.349998474121094" style="translate:none;rotate:none;scale:none;opacity:1;visibility:inherit"/><path d="M100.52 189.79V45.35H12.44v17.19c5.43.33 10.32 2.68 13.92 6.28 3.91 3.92 6.33 9.32 6.33 15.28v181.85c-.07 32.73-20.03 47.19-32.7 59.87l32.7 47.95 67.81 99.44c-.41-1.5-.12-67.09-.03-109.19h.05V259.95h26.42l-1.51-70.15h-24.91Z" class="icon-3" data-svg-origin="-0.009998321533203125 45.349998474121094" style="translate:none;rotate:none;scale:none;opacity:1;visibility:inherit"/></svg>